# xmcd
#
# Track frame offsets:
#	150
#	13728
#	26285
#	42407
#	54830
#	69213
#	82771
#	96687
#	109729
#	122358
#	132690
#	147422
#	160794
#	173740
#	188510
#	200509
#	210715
#	226049
#	240776
#	252084
#
# Disc length: 3541 seconds
#
# Revision: 1
# Processed by: cddbd v1.5.2PL0 Copyright (c) Steve Scherf et al.
# Submitted via: audiograbber 1.82.02
#
DISCID=fc0dd314
DTITLE=grupo pegasso - vol. 2
DYEAR=1996
DGENRE=grupo
TTITLE0=chapoteando
TTITLE1=amor engano y perdon
TTITLE2=el no te quiere
TTITLE3=vuelve por favor
TTITLE4=por tu culpa
TTITLE5=rocio de amor
TTITLE6=morena de mis amores
TTITLE7=mi rancherita
TTITLE8=corazon enamorado
TTITLE9=vida
TTITLE10=amor vendido
TTITLE11=se acabo quien te queria
TTITLE12=anna
TTITLE13=sin tu carino
TTITLE14=mireya
TTITLE15=no rompas
TTITLE16=hola como estas
TTITLE17=amor no me ignores
TTITLE18=loco proceder
TTITLE19=tus rencores
EXTD=
EXTT0=
EXTT1=
EXTT2=
EXTT3=
EXTT4=
EXTT5=
EXTT6=
EXTT7=
EXTT8=
EXTT9=
EXTT10=
EXTT11=
EXTT12=
EXTT13=
EXTT14=
EXTT15=
EXTT16=
EXTT17=
EXTT18=
EXTT19=
PLAYORDER=
